<mxfile host="65bd71144e">
    <diagram id="nnJYFBYkPbG7cH_2rHXF" name="Page-1">
        <mxGraphModel dx="-676" dy="404" grid="1" gridSize="10" guides="1" tooltips="1" connect="1" arrows="1" fold="1" page="1" pageScale="1" pageWidth="1100" pageHeight="850" background="none" math="0" shadow="0">
            <root>
                <mxCell id="0"/>
                <mxCell id="1" parent="0"/>
                <mxCell id="135" value="" style="ellipse;whiteSpace=wrap;html=1;aspect=fixed;" parent="1" vertex="1">
                    <mxGeometry x="3330" y="1150" width="60" height="60" as="geometry"/>
                </mxCell>
                <mxCell id="129" value="" style="ellipse;whiteSpace=wrap;html=1;aspect=fixed;" parent="1" vertex="1">
                    <mxGeometry x="2330" y="1400" width="60" height="60" as="geometry"/>
                </mxCell>
                <mxCell id="95" value="" style="ellipse;whiteSpace=wrap;html=1;aspect=fixed;" parent="1" vertex="1">
                    <mxGeometry x="2365" y="2095" width="60" height="60" as="geometry"/>
                </mxCell>
                <mxCell id="3" value="" style="ellipse;whiteSpace=wrap;html=1;aspect=fixed;" parent="1" vertex="1">
                    <mxGeometry x="3020" y="2023.75" width="60" height="60" as="geometry"/>
                </mxCell>
                <mxCell id="4" style="edgeStyle=orthogonalEdgeStyle;html=1;exitX=0.5;exitY=1;exitDx=0;exitDy=0;entryX=0.5;entryY=0;entryDx=0;entryDy=0;endArrow=classic;endFill=1;" parent="1" source="5" target="8" edge="1">
                    <mxGeometry relative="1" as="geometry"/>
                </mxCell>
                <mxCell id="5" value="Modification inscription circuit" style="rounded=1;whiteSpace=wrap;html=1;strokeColor=default;" parent="1" vertex="1">
                    <mxGeometry x="2770" y="643.75" width="120" height="60" as="geometry"/>
                </mxCell>
                <mxCell id="6" value="Nouvelle/modifier&lt;br&gt;inscription" style="edgeStyle=orthogonalEdgeStyle;html=1;exitX=0.5;exitY=1;exitDx=0;exitDy=0;endArrow=classic;endFill=1;" parent="1" source="8" target="10" edge="1">
                    <mxGeometry relative="1" as="geometry">
                        <mxPoint x="2650" y="900" as="targetPoint"/>
                        <Array as="points">
                            <mxPoint x="2830" y="860"/>
                            <mxPoint x="2830" y="860"/>
                        </Array>
                    </mxGeometry>
                </mxCell>
                <mxCell id="7" value="Supprimer &lt;br&gt;inscription &lt;br&gt;circuit" style="edgeStyle=orthogonalEdgeStyle;html=1;exitX=1;exitY=0.5;exitDx=0;exitDy=0;endArrow=classic;endFill=1;entryX=0.5;entryY=0;entryDx=0;entryDy=0;" parent="1" source="8" target="30" edge="1">
                    <mxGeometry relative="1" as="geometry">
                        <mxPoint x="3090" y="870" as="targetPoint"/>
                    </mxGeometry>
                </mxCell>
                <mxCell id="65" value="Inscription&amp;nbsp;&lt;br&gt;en attente" style="edgeStyle=orthogonalEdgeStyle;html=1;exitX=0;exitY=0.5;exitDx=0;exitDy=0;" parent="1" source="8" edge="1">
                    <mxGeometry x="-0.3893" relative="1" as="geometry">
                        <mxPoint x="2490" y="860" as="targetPoint"/>
                        <mxPoint as="offset"/>
                    </mxGeometry>
                </mxCell>
                <mxCell id="8" value="" style="rhombus;whiteSpace=wrap;html=1;strokeColor=default;" parent="1" vertex="1">
                    <mxGeometry x="2790" y="763.75" width="80" height="80" as="geometry"/>
                </mxCell>
                <mxCell id="9" style="edgeStyle=orthogonalEdgeStyle;html=1;exitX=0.5;exitY=1;exitDx=0;exitDy=0;entryX=0.5;entryY=0;entryDx=0;entryDy=0;endArrow=classic;endFill=1;" parent="1" source="10" target="13" edge="1">
                    <mxGeometry relative="1" as="geometry"/>
                </mxCell>
                <mxCell id="10" value="Liste circuit disponible" style="rounded=1;whiteSpace=wrap;html=1;strokeColor=default;" parent="1" vertex="1">
                    <mxGeometry x="2770" y="970" width="120" height="60" as="geometry"/>
                </mxCell>
                <mxCell id="11" value="Oui" style="edgeStyle=orthogonalEdgeStyle;html=1;exitX=0.5;exitY=1;exitDx=0;exitDy=0;entryX=0.5;entryY=0;entryDx=0;entryDy=0;endArrow=classic;endFill=1;" parent="1" source="13" target="15" edge="1">
                    <mxGeometry relative="1" as="geometry"/>
                </mxCell>
                <mxCell id="12" value="Non" style="edgeStyle=orthogonalEdgeStyle;html=1;exitX=0;exitY=0.5;exitDx=0;exitDy=0;entryX=0;entryY=0.5;entryDx=0;entryDy=0;endArrow=classic;endFill=1;" parent="1" source="13" target="10" edge="1">
                    <mxGeometry x="-0.8336" relative="1" as="geometry">
                        <Array as="points">
                            <mxPoint x="2640" y="1115"/>
                            <mxPoint x="2640" y="1000"/>
                        </Array>
                        <mxPoint as="offset"/>
                    </mxGeometry>
                </mxCell>
                <mxCell id="13" value="Choix circuit" style="rhombus;whiteSpace=wrap;html=1;strokeColor=default;" parent="1" vertex="1">
                    <mxGeometry x="2790" y="1075" width="80" height="80" as="geometry"/>
                </mxCell>
                <mxCell id="14" style="edgeStyle=orthogonalEdgeStyle;html=1;exitX=0.5;exitY=1;exitDx=0;exitDy=0;entryX=0.5;entryY=0;entryDx=0;entryDy=0;endArrow=classic;endFill=1;" parent="1" source="15" target="18" edge="1">
                    <mxGeometry relative="1" as="geometry"/>
                </mxCell>
                <mxCell id="15" value="Affichage info circuit" style="rounded=1;whiteSpace=wrap;html=1;strokeColor=default;" parent="1" vertex="1">
                    <mxGeometry x="2770" y="1215" width="120" height="60" as="geometry"/>
                </mxCell>
                <mxCell id="16" value="Oui" style="edgeStyle=orthogonalEdgeStyle;html=1;exitX=0.5;exitY=1;exitDx=0;exitDy=0;entryX=0.5;entryY=0;entryDx=0;entryDy=0;endArrow=classic;endFill=1;" parent="1" source="18" target="21" edge="1">
                    <mxGeometry relative="1" as="geometry"/>
                </mxCell>
                <mxCell id="17" value="Non" style="edgeStyle=orthogonalEdgeStyle;html=1;exitX=0;exitY=0.5;exitDx=0;exitDy=0;entryX=0;entryY=0.5;entryDx=0;entryDy=0;endArrow=classic;endFill=1;" parent="1" source="18" target="10" edge="1">
                    <mxGeometry x="-0.8559" relative="1" as="geometry">
                        <Array as="points">
                            <mxPoint x="2640" y="1365"/>
                            <mxPoint x="2640" y="1000"/>
                        </Array>
                        <mxPoint x="-1" as="offset"/>
                    </mxGeometry>
                </mxCell>
                <mxCell id="18" value="Valider" style="rhombus;whiteSpace=wrap;html=1;strokeColor=default;" parent="1" vertex="1">
                    <mxGeometry x="2790" y="1325" width="80" height="80" as="geometry"/>
                </mxCell>
                <mxCell id="19" value="Non" style="edgeStyle=orthogonalEdgeStyle;html=1;exitX=0;exitY=0.5;exitDx=0;exitDy=0;entryX=0;entryY=0.5;entryDx=0;entryDy=0;endArrow=classic;endFill=1;" parent="1" source="21" target="10" edge="1">
                    <mxGeometry x="-0.8729" relative="1" as="geometry">
                        <Array as="points">
                            <mxPoint x="2640" y="1495"/>
                            <mxPoint x="2640" y="1000"/>
                        </Array>
                        <mxPoint x="-1" as="offset"/>
                    </mxGeometry>
                </mxCell>
                <mxCell id="20" value="Oui" style="edgeStyle=orthogonalEdgeStyle;html=1;exitX=0.5;exitY=1;exitDx=0;exitDy=0;entryX=0.5;entryY=0;entryDx=0;entryDy=0;endArrow=classic;endFill=1;" parent="1" source="21" target="24" edge="1">
                    <mxGeometry x="-0.2593" relative="1" as="geometry">
                        <mxPoint as="offset"/>
                    </mxGeometry>
                </mxCell>
                <mxCell id="21" value="Check condition inscription ok" style="rhombus;whiteSpace=wrap;html=1;strokeColor=default;" parent="1" vertex="1">
                    <mxGeometry x="2790" y="1455" width="80" height="80" as="geometry"/>
                </mxCell>
                <mxCell id="22" value="Oui" style="edgeStyle=orthogonalEdgeStyle;html=1;exitX=1;exitY=0.5;exitDx=0;exitDy=0;endArrow=classic;endFill=1;" parent="1" source="24" target="44" edge="1">
                    <mxGeometry relative="1" as="geometry">
                        <mxPoint x="2920" y="1740" as="targetPoint"/>
                    </mxGeometry>
                </mxCell>
                <mxCell id="23" value="Non" style="edgeStyle=orthogonalEdgeStyle;html=1;exitX=0.5;exitY=1;exitDx=0;exitDy=0;endArrow=classic;endFill=1;entryX=0.5;entryY=0;entryDx=0;entryDy=0;" parent="1" source="24" target="92" edge="1">
                    <mxGeometry x="-0.9341" relative="1" as="geometry">
                        <mxPoint x="2810" y="1943" as="targetPoint"/>
                        <mxPoint as="offset"/>
                    </mxGeometry>
                </mxCell>
                <mxCell id="24" value="Check si déjà inscrit à un circuit" style="rhombus;whiteSpace=wrap;html=1;strokeColor=default;" parent="1" vertex="1">
                    <mxGeometry x="2790" y="1602.5" width="80" height="80" as="geometry"/>
                </mxCell>
                <mxCell id="28" value="Non" style="edgeStyle=orthogonalEdgeStyle;html=1;exitX=1;exitY=0.5;exitDx=0;exitDy=0;entryX=1;entryY=0.5;entryDx=0;entryDy=0;endArrow=classic;endFill=1;" parent="1" source="30" target="5" edge="1">
                    <mxGeometry x="-0.9022" relative="1" as="geometry">
                        <Array as="points">
                            <mxPoint x="3350" y="907"/>
                            <mxPoint x="3350" y="674"/>
                        </Array>
                        <mxPoint as="offset"/>
                    </mxGeometry>
                </mxCell>
                <mxCell id="29" value="Non" style="edgeStyle=orthogonalEdgeStyle;html=1;exitX=0.5;exitY=1;exitDx=0;exitDy=0;endArrow=classic;endFill=1;startArrow=none;entryX=0.5;entryY=0;entryDx=0;entryDy=0;" parent="1" source="35" target="132" edge="1">
                    <mxGeometry x="-0.1228" relative="1" as="geometry">
                        <mxPoint as="offset"/>
                        <mxPoint x="3220" y="1140" as="targetPoint"/>
                    </mxGeometry>
                </mxCell>
                <mxCell id="30" value="Check si inscrit à un circuit" style="rhombus;whiteSpace=wrap;html=1;strokeColor=default;" parent="1" vertex="1">
                    <mxGeometry x="3180" y="867.5" width="80" height="80" as="geometry"/>
                </mxCell>
                <mxCell id="31" style="edgeStyle=orthogonalEdgeStyle;html=1;exitX=0.5;exitY=1;exitDx=0;exitDy=0;entryX=0.5;entryY=0;entryDx=0;entryDy=0;endArrow=classic;endFill=1;startArrow=none;" parent="1" source="62" edge="1">
                    <mxGeometry relative="1" as="geometry">
                        <mxPoint x="3220" y="1442.5" as="targetPoint"/>
                    </mxGeometry>
                </mxCell>
                <mxCell id="32" value="Suppression événement du circuit" style="rounded=1;whiteSpace=wrap;html=1;strokeColor=default;" parent="1" vertex="1">
                    <mxGeometry x="3160" y="1275" width="120" height="60" as="geometry"/>
                </mxCell>
                <mxCell id="33" value="Oui" style="edgeStyle=orthogonalEdgeStyle;html=1;exitX=0.5;exitY=1;exitDx=0;exitDy=0;entryX=0.5;entryY=0;entryDx=0;entryDy=0;endArrow=classic;endFill=1;" parent="1" source="30" target="35" edge="1">
                    <mxGeometry relative="1" as="geometry">
                        <mxPoint x="3090" y="947.5" as="sourcePoint"/>
                        <mxPoint x="3090" y="1142.5" as="targetPoint"/>
                    </mxGeometry>
                </mxCell>
                <mxCell id="34" value="Oui" style="edgeStyle=orthogonalEdgeStyle;html=1;exitX=0;exitY=0.5;exitDx=0;exitDy=0;entryX=0.5;entryY=0;entryDx=0;entryDy=0;endArrow=classic;endFill=1;" parent="1" source="35" target="38" edge="1">
                    <mxGeometry x="-0.8872" relative="1" as="geometry">
                        <Array as="points">
                            <mxPoint x="3050" y="1035"/>
                        </Array>
                        <mxPoint x="-1" as="offset"/>
                    </mxGeometry>
                </mxCell>
                <mxCell id="35" value="Check si inscription évènement ouverte" style="rhombus;whiteSpace=wrap;html=1;strokeColor=default;" parent="1" vertex="1">
                    <mxGeometry x="3180" y="995" width="80" height="80" as="geometry"/>
                </mxCell>
                <mxCell id="36" value="Oui" style="edgeStyle=orthogonalEdgeStyle;html=1;exitX=0.5;exitY=1;exitDx=0;exitDy=0;entryX=0.5;entryY=0;entryDx=0;entryDy=0;endArrow=classic;endFill=1;" parent="1" source="38" target="40" edge="1">
                    <mxGeometry relative="1" as="geometry"/>
                </mxCell>
                <mxCell id="37" value="Non" style="edgeStyle=orthogonalEdgeStyle;html=1;exitX=1;exitY=0.5;exitDx=0;exitDy=0;endArrow=classic;endFill=1;" parent="1" source="38" edge="1">
                    <mxGeometry x="-0.8849" relative="1" as="geometry">
                        <mxPoint x="3050" y="2038.75" as="targetPoint"/>
                        <Array as="points">
                            <mxPoint x="3140" y="1830.75"/>
                            <mxPoint x="3140" y="1998.75"/>
                            <mxPoint x="3050" y="1998.75"/>
                        </Array>
                        <mxPoint as="offset"/>
                    </mxGeometry>
                </mxCell>
                <mxCell id="38" value="Annuler événement?" style="rhombus;whiteSpace=wrap;html=1;" parent="1" vertex="1">
                    <mxGeometry x="3010" y="1791.25" width="80" height="80" as="geometry"/>
                </mxCell>
                <mxCell id="39" style="edgeStyle=orthogonalEdgeStyle;html=1;exitX=0.5;exitY=1;exitDx=0;exitDy=0;entryX=0.5;entryY=0;entryDx=0;entryDy=0;endArrow=classic;endFill=1;" parent="1" source="40" target="41" edge="1">
                    <mxGeometry relative="1" as="geometry"/>
                </mxCell>
                <mxCell id="40" value="Annuler événement" style="rounded=1;whiteSpace=wrap;html=1;" parent="1" vertex="1">
                    <mxGeometry x="2990" y="1916.25" width="120" height="60" as="geometry"/>
                </mxCell>
                <mxCell id="41" value="" style="ellipse;whiteSpace=wrap;html=1;aspect=fixed;" parent="1" vertex="1">
                    <mxGeometry x="3030" y="2033.75" width="40" height="40" as="geometry"/>
                </mxCell>
                <mxCell id="42" value="Oui" style="edgeStyle=orthogonalEdgeStyle;html=1;exitX=1;exitY=0.5;exitDx=0;exitDy=0;entryX=0.5;entryY=0;entryDx=0;entryDy=0;endArrow=classic;endFill=1;" parent="1" source="44" target="38" edge="1">
                    <mxGeometry relative="1" as="geometry">
                        <Array as="points">
                            <mxPoint x="3050" y="1750"/>
                        </Array>
                    </mxGeometry>
                </mxCell>
                <mxCell id="43" value="Non" style="edgeStyle=orthogonalEdgeStyle;html=1;exitX=0.5;exitY=1;exitDx=0;exitDy=0;endArrow=classic;endFill=1;entryX=0.5;entryY=0;entryDx=0;entryDy=0;" parent="1" source="44" target="110" edge="1">
                    <mxGeometry x="-0.8443" relative="1" as="geometry">
                        <mxPoint x="2900" y="1970" as="targetPoint"/>
                        <Array as="points">
                            <mxPoint x="2920" y="1890"/>
                            <mxPoint x="2775" y="1890"/>
                        </Array>
                        <mxPoint as="offset"/>
                    </mxGeometry>
                </mxCell>
                <mxCell id="44" value="Check si inscription évènement ouverte" style="rhombus;whiteSpace=wrap;html=1;" parent="1" vertex="1">
                    <mxGeometry x="2880" y="1710" width="80" height="80" as="geometry"/>
                </mxCell>
                <mxCell id="48" style="edgeStyle=orthogonalEdgeStyle;html=1;exitX=0.5;exitY=1;exitDx=0;exitDy=0;entryX=0.5;entryY=0;entryDx=0;entryDy=0;endArrow=classic;endFill=1;" parent="1" source="49" target="55" edge="1">
                    <mxGeometry relative="1" as="geometry">
                        <mxPoint x="2290" y="2307.5" as="targetPoint"/>
                    </mxGeometry>
                </mxCell>
                <mxCell id="49" value="Envoie demande inscription circuit" style="rounded=1;whiteSpace=wrap;html=1;" parent="1" vertex="1">
                    <mxGeometry x="2230" y="2180" width="120" height="60" as="geometry"/>
                </mxCell>
                <mxCell id="55" value="" style="shape=sumEllipse;perimeter=ellipsePerimeter;whiteSpace=wrap;html=1;backgroundOutline=1;" parent="1" vertex="1">
                    <mxGeometry x="2270" y="2310" width="40" height="40" as="geometry"/>
                </mxCell>
                <mxCell id="64" style="edgeStyle=none;html=1;exitX=0.5;exitY=1;exitDx=0;exitDy=0;entryX=0.5;entryY=0;entryDx=0;entryDy=0;" parent="1" source="63" target="5" edge="1">
                    <mxGeometry relative="1" as="geometry"/>
                </mxCell>
                <mxCell id="63" value="" style="ellipse;whiteSpace=wrap;html=1;aspect=fixed;" parent="1" vertex="1">
                    <mxGeometry x="2810" y="550" width="40" height="40" as="geometry"/>
                </mxCell>
                <mxCell id="70" value="Oui" style="edgeStyle=orthogonalEdgeStyle;html=1;exitX=0.5;exitY=1;exitDx=0;exitDy=0;entryX=0.5;entryY=0;entryDx=0;entryDy=0;" parent="1" source="67" target="69" edge="1">
                    <mxGeometry relative="1" as="geometry"/>
                </mxCell>
                <mxCell id="80" value="Non" style="edgeStyle=orthogonalEdgeStyle;html=1;exitX=1;exitY=0.5;exitDx=0;exitDy=0;entryX=0.5;entryY=0;entryDx=0;entryDy=0;" parent="1" source="67" target="71" edge="1">
                    <mxGeometry x="-0.8333" relative="1" as="geometry">
                        <Array as="points">
                            <mxPoint x="2280" y="1395"/>
                            <mxPoint x="2280" y="1565"/>
                            <mxPoint x="2180" y="1565"/>
                        </Array>
                        <mxPoint as="offset"/>
                    </mxGeometry>
                </mxCell>
                <mxCell id="67" value="Annuler demande" style="rhombus;whiteSpace=wrap;html=1;" parent="1" vertex="1">
                    <mxGeometry x="2140" y="1355" width="80" height="80" as="geometry"/>
                </mxCell>
                <mxCell id="72" style="edgeStyle=orthogonalEdgeStyle;html=1;exitX=0.5;exitY=1;exitDx=0;exitDy=0;entryX=0.5;entryY=0;entryDx=0;entryDy=0;" parent="1" source="69" target="71" edge="1">
                    <mxGeometry relative="1" as="geometry"/>
                </mxCell>
                <mxCell id="69" value="Annulation de la demande / notification au circuit" style="rounded=1;whiteSpace=wrap;html=1;" parent="1" vertex="1">
                    <mxGeometry x="2120" y="1490" width="120" height="60" as="geometry"/>
                </mxCell>
                <mxCell id="71" value="" style="shape=sumEllipse;perimeter=ellipsePerimeter;whiteSpace=wrap;html=1;backgroundOutline=1;" parent="1" vertex="1">
                    <mxGeometry x="2160" y="1595" width="40" height="40" as="geometry"/>
                </mxCell>
                <mxCell id="77" value="Non" style="edgeStyle=orthogonalEdgeStyle;html=1;exitX=0;exitY=0.5;exitDx=0;exitDy=0;entryX=0.5;entryY=0;entryDx=0;entryDy=0;" parent="1" source="76" target="67" edge="1">
                    <mxGeometry x="-0.4737" relative="1" as="geometry">
                        <Array as="points">
                            <mxPoint x="2180" y="1280"/>
                        </Array>
                        <mxPoint as="offset"/>
                    </mxGeometry>
                </mxCell>
                <mxCell id="79" value="Oui" style="edgeStyle=orthogonalEdgeStyle;html=1;exitX=0.5;exitY=1;exitDx=0;exitDy=0;entryX=0.5;entryY=0;entryDx=0;entryDy=0;" parent="1" source="76" target="78" edge="1">
                    <mxGeometry relative="1" as="geometry"/>
                </mxCell>
                <mxCell id="76" value="Demande accepté" style="rhombus;whiteSpace=wrap;html=1;" parent="1" vertex="1">
                    <mxGeometry x="2450" y="1240" width="80" height="80" as="geometry"/>
                </mxCell>
                <mxCell id="120" value="Oui" style="edgeStyle=orthogonalEdgeStyle;html=1;exitX=0.5;exitY=1;exitDx=0;exitDy=0;entryX=0.5;entryY=0;entryDx=0;entryDy=0;" parent="1" source="78" target="24" edge="1">
                    <mxGeometry x="-0.9231" relative="1" as="geometry">
                        <Array as="points">
                            <mxPoint x="2490" y="1580"/>
                            <mxPoint x="2830" y="1580"/>
                        </Array>
                        <mxPoint as="offset"/>
                    </mxGeometry>
                </mxCell>
                <mxCell id="131" value="Non" style="edgeStyle=orthogonalEdgeStyle;html=1;exitX=0;exitY=0.5;exitDx=0;exitDy=0;entryX=1;entryY=0.5;entryDx=0;entryDy=0;" parent="1" source="78" target="130" edge="1">
                    <mxGeometry relative="1" as="geometry"/>
                </mxCell>
                <mxCell id="78" value="Ajouter événement au circuit" style="rhombus;whiteSpace=wrap;html=1;" parent="1" vertex="1">
                    <mxGeometry x="2450" y="1390" width="80" height="80" as="geometry"/>
                </mxCell>
                <mxCell id="82" value="Non" style="edgeStyle=orthogonalEdgeStyle;html=1;exitX=0;exitY=0.5;exitDx=0;exitDy=0;entryX=0.5;entryY=0;entryDx=0;entryDy=0;" parent="1" source="92" target="94" edge="1">
                    <mxGeometry relative="1" as="geometry">
                        <mxPoint x="2620" y="1986.4999999999995" as="sourcePoint"/>
                    </mxGeometry>
                </mxCell>
                <mxCell id="86" value="Oui" style="edgeStyle=orthogonalEdgeStyle;html=1;exitX=1;exitY=0.5;exitDx=0;exitDy=0;entryX=0.5;entryY=0;entryDx=0;entryDy=0;" parent="1" source="92" target="93" edge="1">
                    <mxGeometry relative="1" as="geometry">
                        <mxPoint x="2490" y="2013.2499999999995" as="sourcePoint"/>
                    </mxGeometry>
                </mxCell>
                <mxCell id="83" style="edgeStyle=orthogonalEdgeStyle;html=1;exitX=0.5;exitY=1;exitDx=0;exitDy=0;entryX=0.5;entryY=0;entryDx=0;entryDy=0;endArrow=classic;endFill=1;" parent="1" source="84" target="85" edge="1">
                    <mxGeometry relative="1" as="geometry">
                        <mxPoint x="2510" y="2307.5" as="targetPoint"/>
                    </mxGeometry>
                </mxCell>
                <mxCell id="84" value="Ajout événement au circuit" style="rounded=1;whiteSpace=wrap;html=1;" parent="1" vertex="1">
                    <mxGeometry x="2450" y="2180" width="120" height="60" as="geometry"/>
                </mxCell>
                <mxCell id="85" value="" style="shape=sumEllipse;perimeter=ellipsePerimeter;whiteSpace=wrap;html=1;backgroundOutline=1;" parent="1" vertex="1">
                    <mxGeometry x="2490" y="2310" width="40" height="40" as="geometry"/>
                </mxCell>
                <mxCell id="92" value="check si déjà une demande d'inscription validée" style="rhombus;whiteSpace=wrap;html=1;" parent="1" vertex="1">
                    <mxGeometry x="2330" y="1943.75" width="130" height="116.25" as="geometry"/>
                </mxCell>
                <mxCell id="98" value="Non" style="edgeStyle=orthogonalEdgeStyle;html=1;exitX=0;exitY=0.5;exitDx=0;exitDy=0;entryX=1;entryY=0.5;entryDx=0;entryDy=0;" parent="1" source="93" target="96" edge="1">
                    <mxGeometry relative="1" as="geometry"/>
                </mxCell>
                <mxCell id="100" value="Oui" style="edgeStyle=orthogonalEdgeStyle;html=1;exitX=0.5;exitY=1;exitDx=0;exitDy=0;entryX=0.5;entryY=0;entryDx=0;entryDy=0;" parent="1" source="93" target="84" edge="1">
                    <mxGeometry relative="1" as="geometry"/>
                </mxCell>
                <mxCell id="93" value="Validation" style="rhombus;whiteSpace=wrap;html=1;" parent="1" vertex="1">
                    <mxGeometry x="2470" y="2045" width="80" height="80" as="geometry"/>
                </mxCell>
                <mxCell id="97" value="Non" style="edgeStyle=orthogonalEdgeStyle;html=1;exitX=1;exitY=0.5;exitDx=0;exitDy=0;entryX=0;entryY=0.5;entryDx=0;entryDy=0;" parent="1" source="94" target="96" edge="1">
                    <mxGeometry relative="1" as="geometry"/>
                </mxCell>
                <mxCell id="99" value="Oui" style="edgeStyle=orthogonalEdgeStyle;html=1;exitX=0.5;exitY=1;exitDx=0;exitDy=0;entryX=0.5;entryY=0;entryDx=0;entryDy=0;" parent="1" source="94" target="49" edge="1">
                    <mxGeometry relative="1" as="geometry"/>
                </mxCell>
                <mxCell id="94" value="Validation" style="rhombus;whiteSpace=wrap;html=1;" parent="1" vertex="1">
                    <mxGeometry x="2250" y="2050" width="80" height="80" as="geometry"/>
                </mxCell>
                <mxCell id="96" value="" style="ellipse;whiteSpace=wrap;html=1;aspect=fixed;" parent="1" vertex="1">
                    <mxGeometry x="2375" y="2105" width="40" height="40" as="geometry"/>
                </mxCell>
                <mxCell id="101" value="" style="ellipse;whiteSpace=wrap;html=1;aspect=fixed;" parent="1" vertex="1">
                    <mxGeometry x="2745" y="2095" width="60" height="60" as="geometry"/>
                </mxCell>
                <mxCell id="102" style="edgeStyle=orthogonalEdgeStyle;html=1;exitX=0.5;exitY=1;exitDx=0;exitDy=0;entryX=0.5;entryY=0;entryDx=0;entryDy=0;endArrow=classic;endFill=1;" parent="1" source="103" target="104" edge="1">
                    <mxGeometry relative="1" as="geometry">
                        <mxPoint x="2670" y="2307.5" as="targetPoint"/>
                    </mxGeometry>
                </mxCell>
                <mxCell id="103" value="Envoie demande inscription circuit" style="rounded=1;whiteSpace=wrap;html=1;" parent="1" vertex="1">
                    <mxGeometry x="2610" y="2180" width="120" height="60" as="geometry"/>
                </mxCell>
                <mxCell id="104" value="" style="shape=sumEllipse;perimeter=ellipsePerimeter;whiteSpace=wrap;html=1;backgroundOutline=1;" parent="1" vertex="1">
                    <mxGeometry x="2650" y="2310" width="40" height="40" as="geometry"/>
                </mxCell>
                <mxCell id="105" value="Non" style="edgeStyle=orthogonalEdgeStyle;html=1;exitX=0;exitY=0.5;exitDx=0;exitDy=0;entryX=0.5;entryY=0;entryDx=0;entryDy=0;" parent="1" source="110" target="116" edge="1">
                    <mxGeometry relative="1" as="geometry">
                        <mxPoint x="3000" y="1986.4999999999995" as="sourcePoint"/>
                    </mxGeometry>
                </mxCell>
                <mxCell id="106" value="Oui" style="edgeStyle=orthogonalEdgeStyle;html=1;exitX=1;exitY=0.5;exitDx=0;exitDy=0;entryX=0.5;entryY=0;entryDx=0;entryDy=0;" parent="1" source="110" target="113" edge="1">
                    <mxGeometry relative="1" as="geometry">
                        <mxPoint x="2870" y="2013.2499999999995" as="sourcePoint"/>
                    </mxGeometry>
                </mxCell>
                <mxCell id="107" style="edgeStyle=orthogonalEdgeStyle;html=1;exitX=0.5;exitY=1;exitDx=0;exitDy=0;entryX=0.5;entryY=0;entryDx=0;entryDy=0;endArrow=classic;endFill=1;" parent="1" source="108" target="109" edge="1">
                    <mxGeometry relative="1" as="geometry">
                        <mxPoint x="2890" y="2407.5" as="targetPoint"/>
                    </mxGeometry>
                </mxCell>
                <mxCell id="108" value="Ajout événement au nouveau circuit" style="rounded=1;whiteSpace=wrap;html=1;" parent="1" vertex="1">
                    <mxGeometry x="2830" y="2280" width="120" height="60" as="geometry"/>
                </mxCell>
                <mxCell id="109" value="" style="shape=sumEllipse;perimeter=ellipsePerimeter;whiteSpace=wrap;html=1;backgroundOutline=1;" parent="1" vertex="1">
                    <mxGeometry x="2870" y="2410" width="40" height="40" as="geometry"/>
                </mxCell>
                <mxCell id="110" value="check si déjà une demande d'inscription validée" style="rhombus;whiteSpace=wrap;html=1;" parent="1" vertex="1">
                    <mxGeometry x="2710" y="1943.75" width="130" height="116.25" as="geometry"/>
                </mxCell>
                <mxCell id="111" value="Non" style="edgeStyle=orthogonalEdgeStyle;html=1;exitX=0;exitY=0.5;exitDx=0;exitDy=0;entryX=1;entryY=0.5;entryDx=0;entryDy=0;" parent="1" source="113" target="117" edge="1">
                    <mxGeometry relative="1" as="geometry"/>
                </mxCell>
                <mxCell id="112" value="Oui" style="edgeStyle=orthogonalEdgeStyle;html=1;exitX=0.5;exitY=1;exitDx=0;exitDy=0;entryX=0.5;entryY=0;entryDx=0;entryDy=0;" parent="1" source="113" target="118" edge="1">
                    <mxGeometry relative="1" as="geometry">
                        <mxPoint x="2960" y="2190" as="targetPoint"/>
                    </mxGeometry>
                </mxCell>
                <mxCell id="113" value="Validation" style="rhombus;whiteSpace=wrap;html=1;" parent="1" vertex="1">
                    <mxGeometry x="2850" y="2045" width="80" height="80" as="geometry"/>
                </mxCell>
                <mxCell id="114" value="Non" style="edgeStyle=orthogonalEdgeStyle;html=1;exitX=1;exitY=0.5;exitDx=0;exitDy=0;entryX=0;entryY=0.5;entryDx=0;entryDy=0;" parent="1" source="116" target="117" edge="1">
                    <mxGeometry relative="1" as="geometry"/>
                </mxCell>
                <mxCell id="115" value="Oui" style="edgeStyle=orthogonalEdgeStyle;html=1;exitX=0.5;exitY=1;exitDx=0;exitDy=0;entryX=0.5;entryY=0;entryDx=0;entryDy=0;" parent="1" source="116" target="103" edge="1">
                    <mxGeometry relative="1" as="geometry"/>
                </mxCell>
                <mxCell id="116" value="Validation" style="rhombus;whiteSpace=wrap;html=1;" parent="1" vertex="1">
                    <mxGeometry x="2630" y="2050" width="80" height="80" as="geometry"/>
                </mxCell>
                <mxCell id="117" value="" style="ellipse;whiteSpace=wrap;html=1;aspect=fixed;" parent="1" vertex="1">
                    <mxGeometry x="2755" y="2105" width="40" height="40" as="geometry"/>
                </mxCell>
                <mxCell id="119" style="edgeStyle=orthogonalEdgeStyle;html=1;exitX=0.5;exitY=1;exitDx=0;exitDy=0;entryX=0.5;entryY=0;entryDx=0;entryDy=0;" parent="1" source="118" target="108" edge="1">
                    <mxGeometry relative="1" as="geometry"/>
                </mxCell>
                <mxCell id="118" value="Suppression de l'événement du circuit précédent" style="rounded=1;whiteSpace=wrap;html=1;" parent="1" vertex="1">
                    <mxGeometry x="2830" y="2180" width="120" height="60" as="geometry"/>
                </mxCell>
                <mxCell id="124" style="edgeStyle=orthogonalEdgeStyle;html=1;exitX=0.5;exitY=1;exitDx=0;exitDy=0;entryX=0.5;entryY=0;entryDx=0;entryDy=0;" parent="1" source="121" target="122" edge="1">
                    <mxGeometry relative="1" as="geometry"/>
                </mxCell>
                <mxCell id="121" value="Affichage liste demandes en attente / acceptés" style="rounded=1;whiteSpace=wrap;html=1;" parent="1" vertex="1">
                    <mxGeometry x="2430" y="860" width="120" height="60" as="geometry"/>
                </mxCell>
                <mxCell id="125" value="Oui" style="edgeStyle=orthogonalEdgeStyle;html=1;exitX=0.5;exitY=1;exitDx=0;exitDy=0;entryX=0.5;entryY=0;entryDx=0;entryDy=0;" parent="1" source="122" target="123" edge="1">
                    <mxGeometry relative="1" as="geometry"/>
                </mxCell>
                <mxCell id="126" value="non" style="edgeStyle=orthogonalEdgeStyle;html=1;exitX=0;exitY=0.5;exitDx=0;exitDy=0;entryX=0;entryY=0.5;entryDx=0;entryDy=0;" parent="1" source="122" target="5" edge="1">
                    <mxGeometry x="-0.9031" relative="1" as="geometry">
                        <Array as="points">
                            <mxPoint x="2360" y="1000"/>
                            <mxPoint x="2360" y="674"/>
                        </Array>
                        <mxPoint as="offset"/>
                    </mxGeometry>
                </mxCell>
                <mxCell id="122" value="selection demande" style="rhombus;whiteSpace=wrap;html=1;" parent="1" vertex="1">
                    <mxGeometry x="2450" y="960" width="80" height="80" as="geometry"/>
                </mxCell>
                <mxCell id="127" style="edgeStyle=orthogonalEdgeStyle;html=1;exitX=0.5;exitY=1;exitDx=0;exitDy=0;entryX=0.5;entryY=0;entryDx=0;entryDy=0;" parent="1" source="123" target="76" edge="1">
                    <mxGeometry relative="1" as="geometry"/>
                </mxCell>
                <mxCell id="123" value="Infos demande" style="rounded=1;whiteSpace=wrap;html=1;" parent="1" vertex="1">
                    <mxGeometry x="2430" y="1090" width="120" height="60" as="geometry"/>
                </mxCell>
                <mxCell id="130" value="" style="ellipse;whiteSpace=wrap;html=1;aspect=fixed;" parent="1" vertex="1">
                    <mxGeometry x="2340" y="1410" width="40" height="40" as="geometry"/>
                </mxCell>
                <mxCell id="133" value="Oui" style="edgeStyle=orthogonalEdgeStyle;html=1;exitX=0.5;exitY=1;exitDx=0;exitDy=0;entryX=0.5;entryY=0;entryDx=0;entryDy=0;" parent="1" source="132" target="32" edge="1">
                    <mxGeometry relative="1" as="geometry"/>
                </mxCell>
                <mxCell id="137" value="Non" style="edgeStyle=orthogonalEdgeStyle;html=1;exitX=1;exitY=0.5;exitDx=0;exitDy=0;" parent="1" source="132" target="136" edge="1">
                    <mxGeometry relative="1" as="geometry"/>
                </mxCell>
                <mxCell id="132" value="Validation" style="rhombus;whiteSpace=wrap;html=1;" parent="1" vertex="1">
                    <mxGeometry x="3180" y="1140" width="80" height="80" as="geometry"/>
                </mxCell>
                <mxCell id="134" value="" style="edgeStyle=orthogonalEdgeStyle;html=1;exitX=0.5;exitY=1;exitDx=0;exitDy=0;entryX=0.5;entryY=0;entryDx=0;entryDy=0;endArrow=none;endFill=1;" parent="1" source="32" target="62" edge="1">
                    <mxGeometry relative="1" as="geometry">
                        <mxPoint x="3220" y="1335" as="sourcePoint"/>
                        <mxPoint x="3220" y="1442.5" as="targetPoint"/>
                    </mxGeometry>
                </mxCell>
                <mxCell id="62" value="" style="shape=sumEllipse;perimeter=ellipsePerimeter;whiteSpace=wrap;html=1;backgroundOutline=1;" parent="1" vertex="1">
                    <mxGeometry x="3200" y="1400" width="40" height="40" as="geometry"/>
                </mxCell>
                <mxCell id="136" value="" style="ellipse;whiteSpace=wrap;html=1;aspect=fixed;" parent="1" vertex="1">
                    <mxGeometry x="3340" y="1160" width="40" height="40" as="geometry"/>
                </mxCell>
            </root>
        </mxGraphModel>
    </diagram>
</mxfile>